Coordinates
version=1
nRows=12
nColumns=34
inDegrees=yes

Units are S.I. units (second, meters, Newtons, ...)
If the header above contains a line with 'inDegrees', this indicates whether rotational values are in degrees (yes) or radians (no).

endheader
time	pelvis_tilt	pelvis_list	pelvis_rotation	pelvis_tx	pelvis_ty	pelvis_tz	hip_flexion_r	hip_adduction_r	hip_rotation_r	knee_angle_r	ankle_angle_r	subtalar_angle_r	mtp_angle_r	hip_flexion_l	hip_adduction_l	hip_rotation_l	knee_angle_l	ankle_angle_l	subtalar_angle_l	mtp_angle_l	lumbar_extension	lumbar_bending	lumbar_rotation	arm_flex_r	arm_add_r	arm_rot_r	elbow_flex_r	pro_sup_r	arm_flex_l	arm_add_l	arm_rot_l	elbow_flex_l	pro_sup_l
      7.48333330	    -29.00874608	     -2.42530358	   -164.54418861	     -7.77662976	      0.95309824	     -1.33739262	     -3.75350151	      7.70847288	     30.42047919	     25.85805654	      2.14063696	     -6.38005271	      0.00000000	    -22.82044623	    -10.91097113	      4.90382477	     44.90332113	     25.63546890	    -15.17687540	      0.00000000	    -35.31696282	      1.32919480	      0.53022814	    -13.50847500	    -32.89045459	     -1.81045636	    139.38001568	    110.78377171	     31.65607645	    -10.36466743	   -331.89629438	    102.92661302	     92.61831486
      7.50000000	    -28.38293444	     -2.46598486	   -163.15806375	     -7.78727416	      0.94907301	     -1.34504161	     -0.98084089	      9.84296785	     31.45911391	     32.43156534	     10.14483346	     -0.89268162	      0.00000000	    -20.38936187	    -12.18162788	      6.32634557	     49.17705204	     26.95458101	    -15.36010675	      0.00000000	    -34.40646587	      1.35962315	      0.20896315	    -13.05995162	    -31.10146928	     -5.09460255	    138.30364308	    110.46110962	     34.99684146	    -10.30684614	   -328.93061935	     96.98378095	     91.99282423
      7.51666670	    -27.64997121	     -2.62364156	   -161.90027506	     -7.79732546	      0.95221603	     -1.35190087	      1.45752064	     11.20305240	     31.14226626	     37.16796281	     14.83931972	      2.34484082	      0.00000000	    -18.17353348	    -12.73512214	      8.19043358	     52.25336974	     25.89394051	    -17.05521108	      0.00000000	    -34.20853187	      1.43753719	      0.13605787	    -12.18072535	    -28.92800482	     -8.88522020	    136.08915940	    109.53635320	     38.88125828	     -8.39159116	   -325.60979280	     87.89188274	     90.42548676
      7.53333330	    -27.20563544	     -2.78382804	   -161.05441736	     -7.80643621	      0.96039575	     -1.35734575	      2.64403575	     11.93125241	     30.32723856	     39.41317889	     16.35811094	      3.27383409	      0.00000000	    -17.06522019	    -12.83804829	      9.80022488	     53.71645872	     22.97276242	    -18.87156041	      0.00000000	    -35.04882366	      1.70430961	     -1.39045950	     -7.91988942	    -26.16505128	     -8.98195692	    130.80531804	    109.14536048	     41.12723125	     -5.77069305	   -325.05471621	     79.15928624	     89.36604233
      7.55000000	    -27.03513249	     -2.75450913	   -160.97042471	     -7.81531570	      0.96933310	     -1.36107693	      2.57957596	     12.26742614	     29.94386857	     39.24019926	     15.32688741	      2.00745316	      0.00000000	    -17.35250032	    -12.80790218	     10.41050977	     53.74974063	     19.17146093	    -21.15048482	      0.00000000	    -36.36675673	      2.24016030	     -2.52336583	     -3.36668566	    -23.37139639	     -6.35525720	    126.16420546	    109.06466670	     41.84090081	     -3.18332438	   -326.19993029	     71.98559667	     88.31991614
      7.56666670	    -26.40620877	     -2.50049145	   -161.35962367	     -7.82452485	      0.97664643	     -1.36333595	      2.24087376	     12.04874622	     30.57313718	     36.83044192	     13.16183846	     -0.40158070	      0.00000000	    -17.94095301	    -12.57107331	     10.19736475	     52.89659341	     14.22699349	    -23.94878261	      0.00000000	    -36.58652904	      2.92163217	     -4.08684518	      2.06453196	    -21.28419355	      1.65512048	    120.50671744	    109.23290639	     39.01513822	     -2.35566181	   -329.22228260	     69.58206202	     85.76243276
      7.58333330	    -26.17725806	     -2.50994433	   -161.59995803	     -7.83225196	      0.97969999	     -1.36528884	      0.95973629	     11.36918479	     32.53648857	     32.85163167	      9.70825360	     -3.62142019	      0.00000000	    -19.07646064	    -12.29405928	      9.69179378	     51.77148389	     10.81675587	    -25.41383805	      0.00000000	    -37.14455234	      3.34417818	     -3.67606073	      5.42402835	    -19.24570927	      7.40786423	    117.24036727	    109.67517419	     35.42365235	     -0.82142263	   -332.26498259	     69.20754721	     83.97937003
      7.60000000	    -25.69934381	     -2.93462588	   -161.66567453	     -7.83942960	      0.98524243	     -1.36860449	     -0.20011659	     10.11033022	     35.41185199	     28.54205821	      6.55648374	     -6.10876229	      0.00000000	    -19.83349521	    -11.88664983	      8.51696392	     50.23031009	      7.88511284	    -26.98166336	      0.00000000	    -37.27321737	      2.71987809	     -1.79848157	      7.26458047	    -16.81941154	     10.09512380	    112.61054712	    110.07544647	     31.89536157	      0.91406960	   -333.19836991	     69.79585472	     83.15970937
      7.61666670	    -24.64132377	     -4.16369833	   -160.85662001	     -7.84590963	      0.99301351	     -1.37201563	     -0.93443181	      7.71222896	     37.38516325	     24.42755012	      2.49015579	     -8.59880571	      0.00000000	    -19.66858872	    -10.82642324	      8.07820056	     48.42056477	      4.88890149	    -28.64259668	      0.00000000	    -37.00032236	      1.61947730	     -1.51705108	      9.64530892	    -14.01114413	     11.90102654	    107.25559125	    110.69365542	     27.94389689	      1.56182355	   -334.19576197	     72.17414331	     82.17978496
      7.63333330	    -23.73516254	     -5.64161969	   -160.14244109	     -7.85308974	      1.00063749	     -1.37613397	     -1.80121487	      5.13282248	     38.57267229	     20.95098859	     -1.65836912	    -11.76367372	      0.00000000	    -19.97599879	     -9.80969253	      7.05659246	     46.26422760	      3.34856131	    -29.16706053	      0.00000000	    -36.81686718	      0.02031490	     -0.88156228	     10.38543619	    -10.81916682	     12.18261761	    104.25088068	    111.30643753	     24.25924358	      1.70518675	   -334.15752458	     75.42935747	     81.75835970
      7.65000000	    -22.91748130	     -6.92329492	   -159.72482447	     -7.86079438	      1.00547910	     -1.37963046	     -2.46758097	      2.71670534	     38.30732256	     18.00761771	     -6.86006513	    -16.81692087	      0.00000000	    -20.75977729	     -8.90814190	      5.77995696	     43.91009939	      2.19301775	    -28.87803971	      0.00000000	    -36.37844839	     -1.40606263	     -0.19232122	     10.66103484	     -8.40101443	     15.65387237	    104.17101492	    112.62690227	     18.83059492	      0.51196138	   -335.55212156	     81.74395628	     81.56091611
      7.66666670	    -22.31436448	     -7.81589369	   -159.39048995	     -7.86920300	      1.01000197	     -1.38208914	     -3.24081941	      0.80713460	     36.03261461	     15.33911717	    -12.08047797	    -22.73676652	      0.00000000	    -21.86291426	     -8.42931140	      4.17284951	     41.55123485	      1.65176377	    -28.13442891	      0.00000000	    -36.19490907	     -2.52899090	      1.18263405	     10.78386320	     -7.21691001	     21.47418076	    105.43795191	    114.32279536	     11.21870007	     -2.03518342	   -338.55160632	     92.29041206	     81.85037986
